<svg xmlns="http://www.w3.org/2000/svg" width="1200" height="630" viewBox="0 0 1200 630"><defs><linearGradient id="bg" x1="0" y1="0" x2="1" y2="1"><stop stop-color="#050A13"/><stop offset=".55" stop-color="#081626"/><stop offset="1" stop-color="#09101D"/></linearGradient><linearGradient id="cyan" x1="0" y1="0" x2="1" y2="1"><stop stop-color="#49D8FF"/><stop offset="1" stop-color="#7667FF"/></linearGradient></defs><rect width="1200" height="630" fill="url(#bg)"/><text x="72" y="72" fill="#5EE7FF" font-family="Arial" font-size="20" font-weight="700" letter-spacing="4">JVM / ANDROID RUNTIME</text><text x="72" y="126" fill="#E7F2FC" font-family="Arial" font-size="48" font-weight="700">JVM RUNTIME DATA AREAS</text><text x="1090" y="86" text-anchor="end" fill="#6D8CFF" font-family="Arial" font-size="62">02</text><g transform="translate(435 200)"><polygon points="165,0 300,78 300,236 165,314 30,236 30,78" fill="#0C1A2B" stroke="url(#cyan)" stroke-width="3"/><polygon points="165,48 258,101 258,211 165,264 72,211 72,101" fill="#0B2234" stroke="#39D6FF"/><text x="165" y="145" text-anchor="middle" fill="#E9F8FF" font-family="Arial" font-size="48" font-weight="700">JVM</text><text x="165" y="181" text-anchor="middle" fill="#8DA9C3" font-family="Arial" font-size="18">Runtime</text></g><g font-family="Arial"><rect x="72" y="205" width="290" height="115" rx="16" fill="#0C1930" stroke="#4FC3F7"/><text x="96" y="241" fill="#65D7FF" font-size="22" font-weight="700">JVM Stack</text><text x="96" y="274" fill="#A4B8CB" font-size="17">Frames · Local Variables</text><text x="96" y="299" fill="#A4B8CB" font-size="17">Operand Stack</text><rect x="72" y="365" width="290" height="115" rx="16" fill="#17152F" stroke="#8A70FF"/><text x="96" y="401" fill="#B29BFF" font-size="22" font-weight="700">Method Area</text><text x="96" y="434" fill="#A8A6BD" font-size="17">Class metadata</text><text x="96" y="459" fill="#A8A6BD" font-size="17">Run-Time Constant Pool</text><rect x="838" y="205" width="290" height="115" rx="16" fill="#0A2622" stroke="#38E8A7"/><text x="862" y="241" fill="#68F0C1" font-size="22" font-weight="700">Heap</text><text x="862" y="274" fill="#9DBDB1" font-size="17">Objects · Arrays</text><text x="862" y="299" fill="#9DBDB1" font-size="17">Shared memory</text><rect x="838" y="365" width="290" height="115" rx="16" fill="#0B1B2B" stroke="#4D91D8"/><text x="862" y="401" fill="#81BFFF" font-size="22" font-weight="700">Per Thread</text><text x="862" y="434" fill="#A0B6CB" font-size="17">pc Register</text><text x="862" y="459" fill="#A0B6CB" font-size="17">Native Method Stack</text></g><text x="72" y="554" fill="#BDD1E4" font-family="Arial" font-size="24">Thread → Stack → Frame → Local Variables + Operand Stack</text><rect x="72" y="592" width="1056" height="2" fill="url(#cyan)" opacity=".65"/></svg>