<svg xmlns="http://www.w3.org/2000/svg" viewBox="0 0 120 120">
  <!-- Android Robot simplified icon -->
  <path fill="#3DDC84" d="M12 24h96v44a8 8 0 0 1-8 8H20a8 8 0 0 1-8-8V24z"/>
  <!-- Head -->
  <path fill="#3DDC84" d="M20 24h80c0-12-8-20-16-20l-4-8h-40l-4 8c-8 0-16 8-16 20z"/>
  <!-- Eyes -->
  <circle fill="#fff" cx="44" cy="38" r="4"/>
  <circle fill="#fff" cx="76" cy="38" r="4"/>
  <!-- Arms -->
  <rect fill="#3DDC84" x="0" y="32" width="12" height="8" rx="4"/>
  <rect fill="#3DDC84" x="108" y="32" width="12" height="8" rx="4"/>
  <!-- Legs -->
  <rect fill="#3DDC84" x="32" y="76" width="12" height="16" rx="6"/>
  <rect fill="#3DDC84" x="76" y="76" width="12" height="16" rx="6"/>
</svg>
