<svg xmlns="http://www.w3.org/2000/svg" viewBox="0 0 120 120">
  <!-- Tech/Code default icon: stylized chip -->
  <rect fill="none" stroke="#6366f1" stroke-width="4" x="12" y="12" width="96" height="96" rx="16"/>
  <rect fill="#6366f1" x="20" y="20" width="32" height="32" rx="4" opacity="0.3"/>
  <rect fill="#a855f7" x="60" y="20" width="40" height="32" rx="4" opacity="0.3"/>
  <rect fill="#22d3ee" x="20" y="60" width="56" height="40" rx="4" opacity="0.3"/>
  <rect fill="#6366f1" x="84" y="60" width="16" height="40" rx="4" opacity="0.3"/>
  <!-- Pins -->
  <rect fill="#64748b" x="44" y="4" width="12" height="8" rx="2"/>
  <rect fill="#64748b" x="64" y="4" width="12" height="8" rx="2"/>
  <rect fill="#64748b" x="44" y="108" width="12" height="8" rx="2"/>
  <rect fill="#64748b" x="64" y="108" width="12" height="8" rx="2"/>
  <rect fill="#64748b" x="4" y="44" width="8" height="12" rx="2"/>
  <rect fill="#64748b" x="4" y="64" width="8" height="12" rx="2"/>
  <rect fill="#64748b" x="108" y="44" width="8" height="12" rx="2"/>
  <rect fill="#64748b" x="108" y="64" width="8" height="12" rx="2"/>
</svg>
